HIERARCHY
ROOT Hips
{
	OFFSET 0.00000 0.00000 0.00000
	CHANNELS 6 Xposition Yposition Zposition Zrotation Yrotation Xrotation 
	JOINT LHipJoint
	{
		OFFSET 0 0 0
		CHANNELS 3 Zrotation Yrotation Xrotation
		JOINT LeftHip
		{
			OFFSET 1.75344 -1.53157 0.77399
			CHANNELS 3 Zrotation Yrotation Xrotation
			JOINT LeftKnee
			{
				OFFSET 2.25415 -6.19323 0.00000
				CHANNELS 3 Zrotation Yrotation Xrotation
				JOINT LeftAnkle
				{
					OFFSET 2.30342 -6.32861 0.00000
					CHANNELS 3 Zrotation Yrotation Xrotation
					JOINT LeftToe
					{
						OFFSET 0.10958 -0.30108 1.49206
						CHANNELS 3 Zrotation Yrotation Xrotation
						End Site
						{
							OFFSET 0.00000 -0.00000 0.77783
						}
					}
				}
			}
		}
	}
	JOINT RHipJoint
	{
		OFFSET 0 0 0
		CHANNELS 3 Zrotation Yrotation Xrotation
		JOINT RightHip
		{
			OFFSET -1.81912 -1.53156 0.77399
			CHANNELS 3 Zrotation Yrotation Xrotation
			JOINT RightKnee
			{
				OFFSET -2.22882 -6.12365 0.00000
				CHANNELS 3 Zrotation Yrotation Xrotation
				JOINT RightAnkle
				{
					OFFSET -2.21943 -6.09785 0.00000
					CHANNELS 3 Zrotation Yrotation Xrotation
					JOINT RightToe
					{
						OFFSET -0.18931 -0.52012 1.59379
						CHANNELS 3 Zrotation Yrotation Xrotation
						End Site
						{
							OFFSET -0.00000 -0.00000 0.84686
						}
					}
				}
			}
		}
	}
	JOINT lowerback
	{
		OFFSET 0 0 0
		CHANNELS 3 Zrotation Yrotation Xrotation
		JOINT Chest
		{
			OFFSET -0.00200 1.66634 -0.14248
			CHANNELS 3 Zrotation Yrotation Xrotation
			JOINT Chest2
			{
				OFFSET -0.00875 1.64542 0.09514
				CHANNELS 3 Zrotation Yrotation Xrotation
				JOINT lowerneck
				{
					OFFSET 0 0 0
					CHANNELS 3 Zrotation Yrotation Xrotation
					JOINT Neck
					{
						OFFSET 0.02257 1.59605 0.00839
						CHANNELS 3 Zrotation Yrotation Xrotation
						JOINT Head
						{
							OFFSET -0.10214 1.57530 -0.23335
							CHANNELS 3 Zrotation Yrotation Xrotation
							End Site
							{
								OFFSET -0.03588 1.60717 -0.08062
							}
						}
					}
				}
				JOINT LeftCollar
				{
					OFFSET 0 0 0
					CHANNELS 3 Zrotation Yrotation Xrotation
					JOINT LeftShoulder
					{
						OFFSET 2.54983 1.10186 0.40078
CHANNELS 3 Zrotation Xrotation Yrotation
						JOINT LeftElbow
						{
OFFSET 0 -4.288400 0.000000
CHANNELS 3 Zrotation Xrotation Yrotation
							JOINT LeftWrist
							{
OFFSET 0 -3.065520 -0.000000
CHANNELS 3 Zrotation Xrotation Yrotation
								JOINT lhand
								{
									OFFSET 0 0 0
CHANNELS 3 Zrotation Xrotation Yrotation
									JOINT LFingers
									{
OFFSET 0 -0.753040 0.000000
CHANNELS 3 Zrotation Xrotation Yrotation
										End Site
										{
OFFSET 0 -0.607120 0.000000
										}
									}
								}
								JOINT LThumb
								{
OFFSET 0 0.000000 0.000000
CHANNELS 3 Zrotation Xrotation Yrotation
									End Site
									{
OFFSET 0 -0.616390 0.616390
									}
								}
							}
						}
					}
				}
				JOINT RightCollar
				{
					OFFSET 0 0 0
					CHANNELS 3 Zrotation Yrotation Xrotation
					JOINT RightShoulder
					{
						OFFSET -2.60909 1.35448 0.21802
CHANNELS 3 Zrotation Xrotation Yrotation
						JOINT RightElbow
						{
OFFSET 0 -4.521720 -0.000000
CHANNELS 3 Zrotation Xrotation Yrotation
							JOINT RightWrist
							{
OFFSET 0 -2.891400 0.000000
CHANNELS 3 Zrotation Xrotation Yrotation
								JOINT rhand
								{
									OFFSET 0 0 0
CHANNELS 3 Zrotation Xrotation Yrotation
									JOINT RFingers
									{
OFFSET 0 -0.680540 0.000000
CHANNELS 3 Zrotation Xrotation Yrotation
										End Site
										{
OFFSET 0 -0.548670 0.000000
										}
									}
								}
								JOINT RThumb
								{
OFFSET 0 0.000000 0.000000
CHANNELS 3 Zrotation Xrotation Yrotation
									End Site
									{
OFFSET 0 -0.557050 0.557050
									}
								}
							}
						}
					}
				}
			}
		}
	}
}
MOTION
Frames: 12
Frame Time: 0.008333333333333333
9.574276 15.340340 -38.163145 -362.022322 -0.616340 2.186020 0.000000 0.000000 0.000000 -15.483199 -17.342188 -12.755752 3.411143 11.332637 33.410051 1.575286 2.161594 -24.576816 1.169931 -6.865096 -19.316490 0.000000 0.000000 0.000000 32.618205 20.892980 1.098924 -1.561889 -7.886787 22.370634 0.709905 -23.879850 -28.837868 -0.069608 -1.701526 4.681453 -0.031948 1.060741 5.492938 0.714700 1.423482 1.425995 0.654857 0.710400 -1.630801 -3.947876 -2.544249 -0.515407 3.749977 -3.198772 -10.186322 1.987576 -1.569645 -3.054877 0.000000 0.000000 0.000000 1.006793 2.556281 -14.302350 18.643068 -28.972611 4.856865 4.994214 13.044511 37.640096 0.000000 0.000000 0.000000 -7.125000 0.000000 0.000000 -15.328051 -6.590048 -17.593227 0.000000 0.000000 0.000000 -4.957828 -0.522028 37.705537 -18.069739 -28.246319 -4.582190 -4.682460 21.637922 49.262372 0.000000 0.000000 0.000000 7.125000 0.000000 0.000000 59.374205 71.529235 -41.586968
9.547332 15.336185 -38.208311 -361.918003 -0.706936 1.788905 0.000000 0.000000 0.000000 -15.527066 -17.086000 -12.362793 3.350849 11.242455 33.101961 1.551606 2.045239 -24.348937 1.287126 -7.188838 -20.276053 0.000000 0.000000 0.000000 32.605086 20.312222 1.055015 -1.577346 -7.923775 22.482825 0.584141 -23.296253 -28.823457 -0.086607 -1.897889 5.223559 -0.221829 0.798974 6.447416 0.899793 1.070995 1.294746 0.961352 0.536860 -2.300770 -3.294350 -2.296195 -1.382900 2.885077 -2.901595 -9.557888 1.549453 -1.416042 -2.709475 0.000000 0.000000 0.000000 1.012701 0.863849 -15.420551 19.584374 -30.138293 5.321099 10.241172 7.485268 37.903510 0.000000 0.000000 0.000000 -7.125000 0.000000 0.000000 -12.627407 -7.552548 -14.512226 0.000000 0.000000 0.000000 -4.829938 -1.430640 36.674405 -17.801396 -27.902187 -4.455959 -7.469171 24.767836 49.522325 0.000000 0.000000 0.000000 7.125000 0.000000 0.000000 58.015710 72.660338 -41.660930
9.530585 15.330110 -38.212642 -361.802653 -1.034622 1.188136 0.000000 0.000000 0.000000 -15.963541 -18.054552 -10.647672 3.176154 10.974678 32.194738 1.497805 3.419808 -24.567076 1.301565 -7.219168 -20.370030 0.000000 0.000000 0.000000 32.793358 20.291257 1.689601 -1.588256 -7.949994 22.562212 0.601429 -23.347346 -28.775565 -0.099286 -2.030327 5.589492 -0.310894 0.737315 6.221757 0.997764 0.983945 1.442521 1.123279 0.492972 -2.024377 -2.981937 -2.068484 -0.499675 2.863657 -2.616096 -9.741076 1.503863 -1.288515 -2.946497 0.000000 0.000000 0.000000 1.069431 -1.067197 -16.339303 19.988638 -30.628636 5.525561 10.907464 5.991963 38.305266 0.000000 0.000000 0.000000 -7.125000 0.000000 0.000000 -12.324147 -8.045314 -14.238599 0.000000 0.000000 0.000000 -4.408760 -2.192065 35.163189 -17.417048 -27.404165 -4.277545 -7.544925 25.792297 51.181347 0.000000 0.000000 0.000000 7.125000 0.000000 0.000000 62.927589 73.409222 -46.699403
9.518074 15.349084 -38.203866 -360.999730 -1.141313 1.186080 0.000000 0.000000 0.000000 -17.225852 -19.926608 -8.793840 2.896294 10.525173 30.694815 1.392741 5.579941 -24.928789 1.257218 -7.108122 -20.036083 0.000000 0.000000 0.000000 32.021676 20.541458 1.569593 -1.652559 -8.101552 23.022914 0.529211 -23.349704 -29.320016 -0.102365 -2.062794 5.679094 -1.027400 0.641505 5.779365 0.894120 0.812027 1.228118 1.435786 0.411680 -2.002568 -2.658002 -2.017115 -0.710539 2.939389 -2.545417 -8.436941 1.443023 -1.268020 -2.473435 0.000000 0.000000 0.000000 0.949842 -2.769684 -16.878913 20.170473 -30.847214 5.618516 10.349019 6.057981 38.334551 0.000000 0.000000 0.000000 -7.125000 0.000000 0.000000 -12.616095 -7.986864 -14.580997 0.000000 0.000000 0.000000 -3.944497 -2.597472 33.652160 -16.671022 -26.422041 -3.939825 -8.436310 27.970750 50.680412 0.000000 0.000000 0.000000 7.125000 0.000000 0.000000 60.786206 73.539315 -44.965606
9.494424 15.355172 -38.194867 -360.467865 -0.680320 1.093208 0.000000 0.000000 0.000000 -18.259569 -22.360562 -7.049884 2.734869 10.252822 29.799513 1.334539 7.519891 -25.717443 0.999982 -6.363554 -17.843102 0.000000 0.000000 0.000000 31.734399 20.868154 1.863627 -1.679437 -8.163775 23.212515 0.421592 -23.534570 -30.382008 -0.176001 -2.701776 7.449560 -1.488216 0.411726 5.158482 0.916537 0.486790 1.385664 1.745838 0.246170 -1.487323 -2.753935 -2.145562 -1.555482 3.270034 -2.701457 -6.945582 1.526960 -1.346320 -1.824659 0.000000 0.000000 0.000000 0.610087 -4.899016 -17.393715 20.331835 -31.040059 5.701461 9.238220 6.503034 38.325243 0.000000 0.000000 0.000000 -7.125000 0.000000 0.000000 -13.189675 -7.810726 -15.243019 0.000000 0.000000 0.000000 -3.747431 -3.135388 33.768430 -16.290398 -25.912837 -3.771958 -8.934417 28.709701 50.277664 0.000000 0.000000 0.000000 7.125000 0.000000 0.000000 59.206032 73.545671 -43.616543
9.465369 15.359177 -38.181270 -360.029028 -0.230153 1.158589 0.000000 0.000000 0.000000 -18.976163 -24.066708 -5.951522 2.627423 10.065991 29.190575 1.312821 8.650373 -26.345218 0.912203 -6.085698 -17.033222 0.000000 0.000000 0.000000 31.395051 20.729702 1.779879 -1.708452 -8.230292 23.415870 0.343241 -23.859404 -31.409018 -0.063974 -1.632317 4.490630 -1.772591 0.299206 4.792500 0.833968 0.325428 0.958524 1.831373 0.172304 -1.715987 -2.480802 -2.269672 -1.143937 3.402642 -2.892833 -5.586127 1.508415 -1.451794 -1.455488 0.000000 0.000000 0.000000 0.365259 -5.449048 -18.161384 20.846429 -31.648680 5.969168 9.132122 6.152468 38.207942 0.000000 0.000000 0.000000 -7.125000 0.000000 0.000000 -13.233175 -7.681737 -15.270256 0.000000 0.000000 0.000000 -3.662594 -1.999180 35.274625 -16.620578 -26.354901 -3.917470 -6.913980 26.100390 51.738776 0.000000 0.000000 0.000000 7.125000 0.000000 0.000000 65.050164 73.399167 -48.547717
9.431764 15.365042 -38.180441 -359.885818 -0.251064 1.582842 0.000000 0.000000 0.000000 -18.827991 -24.238303 -6.321140 2.602111 10.021296 29.045794 1.264305 8.908552 -26.173704 1.284850 -7.182791 -20.258053 0.000000 0.000000 0.000000 31.119883 20.694617 1.274523 -1.694430 -8.198314 23.318090 0.233676 -23.511219 -31.620189 -0.053751 -1.494950 4.111754 -1.775560 0.421865 4.578557 0.912889 0.493241 0.736103 1.904307 0.259410 -1.833139 -2.791738 -2.381028 -1.596468 3.916984 -3.030475 -4.735569 1.706377 -1.516103 -1.094175 0.000000 0.000000 0.000000 -0.084640 -6.219646 -19.858374 21.704843 -32.641663 6.425965 9.251167 4.739123 37.419959 0.000000 0.000000 0.000000 -7.125000 0.000000 0.000000 -13.096581 -6.936417 -14.956378 0.000000 0.000000 0.000000 -3.869697 -1.236938 36.791725 -17.228067 -27.157350 -4.190894 -6.117738 24.477417 50.671263 0.000000 0.000000 0.000000 7.125000 0.000000 0.000000 62.295549 72.687268 -45.337771
9.387010 15.356279 -38.185167 -359.931816 0.569235 1.769201 0.000000 0.000000 0.000000 -18.225063 -23.579563 -7.389547 2.672624 10.145225 29.448193 1.306926 7.372129 -25.406678 1.384282 -7.444334 -21.038685 0.000000 0.000000 0.000000 31.310299 20.562762 1.067386 -1.687884 -8.183255 23.272178 0.280240 -23.897283 -31.880395 -0.049500 -1.436393 3.950312 -1.512294 0.420671 4.675278 1.047202 0.506197 0.615800 1.892966 0.267317 -2.010539 -3.157620 -2.678383 -1.516153 4.354847 -3.413491 -4.727697 1.913416 -1.707231 -1.080047 0.000000 0.000000 0.000000 -0.426607 -6.091145 -22.558562 23.108392 -34.207031 7.199158 9.791452 2.544338 38.133382 0.000000 0.000000 0.000000 -7.125000 0.000000 0.000000 -12.884233 -7.707035 -14.852191 0.000000 0.000000 0.000000 -4.040757 -0.648704 37.288161 -17.536056 -27.559014 -4.332408 -5.232549 22.730862 49.740913 0.000000 0.000000 0.000000 7.125000 0.000000 0.000000 60.256835 71.959234 -42.786166
9.333460 15.337894 -38.196235 -360.096579 1.846525 1.428326 0.000000 0.000000 0.000000 -17.491742 -21.601145 -9.054014 2.898576 10.528743 30.706842 1.330560 5.019668 -24.122914 1.988352 -8.841694 -25.301611 0.000000 0.000000 0.000000 31.725621 19.588779 1.079925 -1.691801 -8.192138 23.299368 0.199989 -23.873136 -32.361569 -0.105901 -2.096423 5.772197 -1.274878 0.432855 5.176116 1.268151 0.534907 0.806924 1.982923 0.279896 -2.095401 -3.629865 -3.124060 -1.065504 5.074262 -3.979207 -5.296588 2.252545 -1.997641 -1.294895 0.000000 0.000000 0.000000 -0.806669 -5.831228 -25.372283 24.493410 -35.681650 7.992557 9.808207 1.027667 38.547570 0.000000 0.000000 0.000000 -7.125000 0.000000 0.000000 -12.917956 -8.110695 -14.970841 0.000000 0.000000 0.000000 -4.082528 -0.213172 36.569075 -17.565041 -27.596622 -4.345894 -4.464534 21.681158 50.004412 0.000000 0.000000 0.000000 7.125000 0.000000 0.000000 61.530502 71.804657 -43.696375
9.281413 15.304077 -38.201037 -361.005741 2.930343 1.474869 0.000000 0.000000 0.000000 -15.694740 -19.996327 -11.920366 3.396199 11.309968 33.333102 1.442461 1.807822 -23.409383 1.836411 -8.516522 -24.294347 0.000000 0.000000 0.000000 32.732444 18.554408 0.602473 -1.649919 -8.095205 23.003636 0.272380 -23.736092 -31.694872 -0.156987 -2.551956 7.033845 -0.292480 0.446076 5.519137 1.712878 0.617679 0.932780 1.881376 0.315248 -2.156029 -4.075547 -3.640313 -1.333997 5.799434 -4.624797 -5.609761 2.571389 -2.320066 -1.293520 0.000000 0.000000 0.000000 -1.147526 -5.726844 -28.029958 25.311542 -36.520574 8.474680 9.406899 0.325602 38.614536 0.000000 0.000000 0.000000 -7.125000 0.000000 0.000000 -13.131416 -8.115500 -15.231883 0.000000 0.000000 0.000000 -4.480621 -0.186343 36.424457 -17.372437 -27.346130 -4.257009 -5.089745 21.969198 49.709285 0.000000 0.000000 0.000000 7.125000 0.000000 0.000000 60.272286 71.893937 -42.726764
9.227420 15.250798 -38.197175 -362.218341 4.150004 1.043031 0.000000 0.000000 0.000000 -13.904753 -19.032168 -14.404887 4.097651 12.288574 36.761582 1.453351 -0.616199 -22.615852 1.897779 -8.649025 -24.703917 0.000000 0.000000 0.000000 34.028416 16.370660 0.159598 -1.601245 -7.980814 22.655891 0.270602 -23.178822 -30.886121 -0.109777 -2.136217 5.882298 0.712098 0.489852 6.025828 2.283549 0.756386 1.106295 1.891676 0.378768 -2.260666 -4.529640 -4.141187 -0.989097 6.919427 -5.251474 -5.902649 3.044928 -2.647712 -1.375994 0.000000 0.000000 0.000000 -1.732670 -5.371057 -30.002422 25.337480 -36.546881 8.490108 9.067197 0.535743 38.892297 0.000000 0.000000 0.000000 -7.125000 0.000000 0.000000 -13.333975 -8.334008 -15.522353 0.000000 0.000000 0.000000 -5.105740 -0.036216 36.536488 -17.192338 -27.110609 -4.174594 -4.722974 21.476541 50.721041 0.000000 0.000000 0.000000 7.125000 0.000000 0.000000 63.360766 72.205316 -45.721602
9.168977 15.206353 -38.173373 -363.208337 5.622617 0.543460 0.000000 0.000000 0.000000 -12.379512 -19.142088 -16.821128 5.088092 13.481061 41.199307 1.356142 -2.239451 -21.396710 1.831879 -8.506192 -24.262787 0.000000 0.000000 0.000000 35.321730 14.706442 0.211225 -1.535952 -7.823958 22.180722 0.200792 -22.919384 -30.979583 -0.151514 -2.503584 6.899781 1.088715 0.522198 6.400116 2.904166 0.847303 1.249533 2.311943 0.423562 -2.328644 -5.193394 -4.673558 -0.198319 8.392114 -5.901517 -6.620096 3.718660 -3.002977 -1.649531 0.000000 0.000000 0.000000 -2.326315 -4.458609 -31.593110 24.782272 -35.980444 8.161685 9.324829 0.561240 39.120822 0.000000 0.000000 0.000000 -7.125000 0.000000 0.000000 -13.225302 -8.592937 -15.439729 0.000000 0.000000 0.000000 -6.076842 0.313424 37.191381 -17.187118 -27.103770 -4.172187 -5.072617 21.250419 51.639718 0.000000 0.000000 0.000000 7.125000 0.000000 0.000000 65.838433 72.691013 -48.449860
